G04*
G04 #@! TF.GenerationSoftware,Altium Limited,Altium Designer,22.7.1 (60)*
G04*
G04 Layer_Color=128*
%FSLAX24Y24*%
%MOIN*%
G70*
G04*
G04 #@! TF.SameCoordinates,E622CADB-B6D0-4B21-91E9-CB6098A5325F*
G04*
G04*
G04 #@! TF.FilePolarity,Positive*
G04*
G01*
G75*
%ADD105C,0.0020*%
D105*
X26724Y62286D02*
X27117D01*
X26920Y62089D02*
Y62483D01*
X29283Y62286D02*
X29676D01*
X29480Y62089D02*
Y62483D01*
X29283Y60514D02*
X29676D01*
X29480Y60317D02*
Y60711D01*
X26724Y60514D02*
X27117D01*
X26920Y60317D02*
Y60711D01*
X8783Y61800D02*
X9217D01*
X9000Y61583D02*
Y62017D01*
X7783Y61800D02*
X8217D01*
X8000Y61583D02*
Y62017D01*
X6783Y61800D02*
X7217D01*
X7000Y61583D02*
Y62017D01*
X706Y56100D02*
X1494D01*
X1100Y55706D02*
Y56494D01*
X5509Y56100D02*
X6297D01*
X5903Y55706D02*
Y56494D01*
X2217Y58856D02*
X2817D01*
X2517Y58556D02*
Y59156D01*
X4186Y58856D02*
X4786D01*
X4486Y58556D02*
Y59156D01*
X3202Y53147D02*
X3802D01*
X3502Y52847D02*
Y53447D01*
X4186Y53147D02*
X4786D01*
X4486Y52847D02*
Y53447D01*
X2217Y53147D02*
X2817D01*
X2517Y52847D02*
Y53447D01*
X35700Y6500D02*
X37300D01*
X36500Y5700D02*
Y7300D01*
X38140Y6500D02*
X38860D01*
X38500Y6140D02*
Y6860D01*
X34140Y6500D02*
X34860D01*
X34500Y6140D02*
Y6860D01*
X37200Y8500D02*
X37800D01*
X37500Y8200D02*
Y8800D01*
X34700Y7500D02*
X35300D01*
X35000Y7200D02*
Y7800D01*
X28200Y6500D02*
X29800D01*
X29000Y5700D02*
Y7300D01*
X30640Y6500D02*
X31360D01*
X31000Y6140D02*
Y6860D01*
X26640Y6500D02*
X27360D01*
X27000Y6140D02*
Y6860D01*
X29700Y8500D02*
X30300D01*
X30000Y8200D02*
Y8800D01*
X27200Y7500D02*
X27800D01*
X27500Y7200D02*
Y7800D01*
X20700Y6500D02*
X22300D01*
X21500Y5700D02*
Y7300D01*
X23140Y6500D02*
X23860D01*
X23500Y6140D02*
Y6860D01*
X19140Y6500D02*
X19860D01*
X19500Y6140D02*
Y6860D01*
X22200Y8500D02*
X22800D01*
X22500Y8200D02*
Y8800D01*
X19700Y7500D02*
X20300D01*
X20000Y7200D02*
Y7800D01*
X13200Y6500D02*
X14800D01*
X14000Y5700D02*
Y7300D01*
X15640Y6500D02*
X16360D01*
X16000Y6140D02*
Y6860D01*
X11640Y6500D02*
X12360D01*
X12000Y6140D02*
Y6860D01*
X14700Y8500D02*
X15300D01*
X15000Y8200D02*
Y8800D01*
X12200Y7500D02*
X12800D01*
X12500Y7200D02*
Y7800D01*
X5700Y6500D02*
X7300D01*
X6500Y5700D02*
Y7300D01*
X8140Y6500D02*
X8860D01*
X8500Y6140D02*
Y6860D01*
X4140Y6500D02*
X4860D01*
X4500Y6140D02*
Y6860D01*
X7200Y8500D02*
X7800D01*
X7500Y8200D02*
Y8800D01*
X4700Y7500D02*
X5300D01*
X5000Y7200D02*
Y7800D01*
X35700Y14000D02*
X37300D01*
X36500Y13200D02*
Y14800D01*
X38140Y14000D02*
X38860D01*
X38500Y13640D02*
Y14360D01*
X34140Y14000D02*
X34860D01*
X34500Y13640D02*
Y14360D01*
X37200Y16000D02*
X37800D01*
X37500Y15700D02*
Y16300D01*
X34700Y15000D02*
X35300D01*
X35000Y14700D02*
Y15300D01*
X28200Y14000D02*
X29800D01*
X29000Y13200D02*
Y14800D01*
X30640Y14000D02*
X31360D01*
X31000Y13640D02*
Y14360D01*
X26640Y14000D02*
X27360D01*
X27000Y13640D02*
Y14360D01*
X29700Y16000D02*
X30300D01*
X30000Y15700D02*
Y16300D01*
X27200Y15000D02*
X27800D01*
X27500Y14700D02*
Y15300D01*
X20700Y14000D02*
X22300D01*
X21500Y13200D02*
Y14800D01*
X23140Y14000D02*
X23860D01*
X23500Y13640D02*
Y14360D01*
X19140Y14000D02*
X19860D01*
X19500Y13640D02*
Y14360D01*
X22200Y16000D02*
X22800D01*
X22500Y15700D02*
Y16300D01*
X19700Y15000D02*
X20300D01*
X20000Y14700D02*
Y15300D01*
X13200Y14000D02*
X14800D01*
X14000Y13200D02*
Y14800D01*
X15640Y14000D02*
X16360D01*
X16000Y13640D02*
Y14360D01*
X11640Y14000D02*
X12360D01*
X12000Y13640D02*
Y14360D01*
X14700Y16000D02*
X15300D01*
X15000Y15700D02*
Y16300D01*
X12200Y15000D02*
X12800D01*
X12500Y14700D02*
Y15300D01*
X5700Y14000D02*
X7300D01*
X6500Y13200D02*
Y14800D01*
X8140Y14000D02*
X8860D01*
X8500Y13640D02*
Y14360D01*
X4140Y14000D02*
X4860D01*
X4500Y13640D02*
Y14360D01*
X7200Y16000D02*
X7800D01*
X7500Y15700D02*
Y16300D01*
X4700Y15000D02*
X5300D01*
X5000Y14700D02*
Y15300D01*
X35700Y21500D02*
X37300D01*
X36500Y20700D02*
Y22300D01*
X38140Y21500D02*
X38860D01*
X38500Y21140D02*
Y21860D01*
X34140Y21500D02*
X34860D01*
X34500Y21140D02*
Y21860D01*
X37200Y23500D02*
X37800D01*
X37500Y23200D02*
Y23800D01*
X34700Y22500D02*
X35300D01*
X35000Y22200D02*
Y22800D01*
X28200Y21500D02*
X29800D01*
X29000Y20700D02*
Y22300D01*
X30640Y21500D02*
X31360D01*
X31000Y21140D02*
Y21860D01*
X26640Y21500D02*
X27360D01*
X27000Y21140D02*
Y21860D01*
X29700Y23500D02*
X30300D01*
X30000Y23200D02*
Y23800D01*
X27200Y22500D02*
X27800D01*
X27500Y22200D02*
Y22800D01*
X20700Y21500D02*
X22300D01*
X21500Y20700D02*
Y22300D01*
X23140Y21500D02*
X23860D01*
X23500Y21140D02*
Y21860D01*
X19140Y21500D02*
X19860D01*
X19500Y21140D02*
Y21860D01*
X22200Y23500D02*
X22800D01*
X22500Y23200D02*
Y23800D01*
X19700Y22500D02*
X20300D01*
X20000Y22200D02*
Y22800D01*
X13200Y21500D02*
X14800D01*
X14000Y20700D02*
Y22300D01*
X15640Y21500D02*
X16360D01*
X16000Y21140D02*
Y21860D01*
X11640Y21500D02*
X12360D01*
X12000Y21140D02*
Y21860D01*
X14700Y23500D02*
X15300D01*
X15000Y23200D02*
Y23800D01*
X12200Y22500D02*
X12800D01*
X12500Y22200D02*
Y22800D01*
X5700Y21500D02*
X7300D01*
X6500Y20700D02*
Y22300D01*
X8140Y21500D02*
X8860D01*
X8500Y21140D02*
Y21860D01*
X4140Y21500D02*
X4860D01*
X4500Y21140D02*
Y21860D01*
X7200Y23500D02*
X7800D01*
X7500Y23200D02*
Y23800D01*
X4700Y22500D02*
X5300D01*
X5000Y22200D02*
Y22800D01*
X35700Y29000D02*
X37300D01*
X36500Y28200D02*
Y29800D01*
X38140Y29000D02*
X38860D01*
X38500Y28640D02*
Y29360D01*
X34140Y29000D02*
X34860D01*
X34500Y28640D02*
Y29360D01*
X37200Y31000D02*
X37800D01*
X37500Y30700D02*
Y31300D01*
X34700Y30000D02*
X35300D01*
X35000Y29700D02*
Y30300D01*
X28200Y29000D02*
X29800D01*
X29000Y28200D02*
Y29800D01*
X30640Y29000D02*
X31360D01*
X31000Y28640D02*
Y29360D01*
X26640Y29000D02*
X27360D01*
X27000Y28640D02*
Y29360D01*
X29700Y31000D02*
X30300D01*
X30000Y30700D02*
Y31300D01*
X27200Y30000D02*
X27800D01*
X27500Y29700D02*
Y30300D01*
X20700Y29000D02*
X22300D01*
X21500Y28200D02*
Y29800D01*
X23140Y29000D02*
X23860D01*
X23500Y28640D02*
Y29360D01*
X19140Y29000D02*
X19860D01*
X19500Y28640D02*
Y29360D01*
X22200Y31000D02*
X22800D01*
X22500Y30700D02*
Y31300D01*
X19700Y30000D02*
X20300D01*
X20000Y29700D02*
Y30300D01*
X13200Y29000D02*
X14800D01*
X14000Y28200D02*
Y29800D01*
X15640Y29000D02*
X16360D01*
X16000Y28640D02*
Y29360D01*
X11640Y29000D02*
X12360D01*
X12000Y28640D02*
Y29360D01*
X14700Y31000D02*
X15300D01*
X15000Y30700D02*
Y31300D01*
X12200Y30000D02*
X12800D01*
X12500Y29700D02*
Y30300D01*
X5700Y29000D02*
X7300D01*
X6500Y28200D02*
Y29800D01*
X8140Y29000D02*
X8860D01*
X8500Y28640D02*
Y29360D01*
X4140Y29000D02*
X4860D01*
X4500Y28640D02*
Y29360D01*
X7200Y31000D02*
X7800D01*
X7500Y30700D02*
Y31300D01*
X4700Y30000D02*
X5300D01*
X5000Y29700D02*
Y30300D01*
X35700Y36500D02*
X37300D01*
X36500Y35700D02*
Y37300D01*
X38140Y36500D02*
X38860D01*
X38500Y36140D02*
Y36860D01*
X34140Y36500D02*
X34860D01*
X34500Y36140D02*
Y36860D01*
X37200Y38500D02*
X37800D01*
X37500Y38200D02*
Y38800D01*
X34700Y37500D02*
X35300D01*
X35000Y37200D02*
Y37800D01*
X28200Y36500D02*
X29800D01*
X29000Y35700D02*
Y37300D01*
X30640Y36500D02*
X31360D01*
X31000Y36140D02*
Y36860D01*
X26640Y36500D02*
X27360D01*
X27000Y36140D02*
Y36860D01*
X29700Y38500D02*
X30300D01*
X30000Y38200D02*
Y38800D01*
X27200Y37500D02*
X27800D01*
X27500Y37200D02*
Y37800D01*
X20700Y36500D02*
X22300D01*
X21500Y35700D02*
Y37300D01*
X23140Y36500D02*
X23860D01*
X23500Y36140D02*
Y36860D01*
X19140Y36500D02*
X19860D01*
X19500Y36140D02*
Y36860D01*
X22200Y38500D02*
X22800D01*
X22500Y38200D02*
Y38800D01*
X19700Y37500D02*
X20300D01*
X20000Y37200D02*
Y37800D01*
X13200Y36500D02*
X14800D01*
X14000Y35700D02*
Y37300D01*
X15640Y36500D02*
X16360D01*
X16000Y36140D02*
Y36860D01*
X11640Y36500D02*
X12360D01*
X12000Y36140D02*
Y36860D01*
X14700Y38500D02*
X15300D01*
X15000Y38200D02*
Y38800D01*
X12200Y37500D02*
X12800D01*
X12500Y37200D02*
Y37800D01*
X5700Y36500D02*
X7300D01*
X6500Y35700D02*
Y37300D01*
X8140Y36500D02*
X8860D01*
X8500Y36140D02*
Y36860D01*
X4140Y36500D02*
X4860D01*
X4500Y36140D02*
Y36860D01*
X7200Y38500D02*
X7800D01*
X7500Y38200D02*
Y38800D01*
X4700Y37500D02*
X5300D01*
X5000Y37200D02*
Y37800D01*
X35700Y44000D02*
X37300D01*
X36500Y43200D02*
Y44800D01*
X38140Y44000D02*
X38860D01*
X38500Y43640D02*
Y44360D01*
X34140Y44000D02*
X34860D01*
X34500Y43640D02*
Y44360D01*
X37200Y46000D02*
X37800D01*
X37500Y45700D02*
Y46300D01*
X34700Y45000D02*
X35300D01*
X35000Y44700D02*
Y45300D01*
X28200Y44000D02*
X29800D01*
X29000Y43200D02*
Y44800D01*
X30640Y44000D02*
X31360D01*
X31000Y43640D02*
Y44360D01*
X26640Y44000D02*
X27360D01*
X27000Y43640D02*
Y44360D01*
X29700Y46000D02*
X30300D01*
X30000Y45700D02*
Y46300D01*
X27200Y45000D02*
X27800D01*
X27500Y44700D02*
Y45300D01*
X20700Y44000D02*
X22300D01*
X21500Y43200D02*
Y44800D01*
X23140Y44000D02*
X23860D01*
X23500Y43640D02*
Y44360D01*
X19140Y44000D02*
X19860D01*
X19500Y43640D02*
Y44360D01*
X22200Y46000D02*
X22800D01*
X22500Y45700D02*
Y46300D01*
X19700Y45000D02*
X20300D01*
X20000Y44700D02*
Y45300D01*
X13200Y44000D02*
X14800D01*
X14000Y43200D02*
Y44800D01*
X15640Y44000D02*
X16360D01*
X16000Y43640D02*
Y44360D01*
X11640Y44000D02*
X12360D01*
X12000Y43640D02*
Y44360D01*
X14700Y46000D02*
X15300D01*
X15000Y45700D02*
Y46300D01*
X12200Y45000D02*
X12800D01*
X12500Y44700D02*
Y45300D01*
X5700Y44000D02*
X7300D01*
X6500Y43200D02*
Y44800D01*
X8140Y44000D02*
X8860D01*
X8500Y43640D02*
Y44360D01*
X4140Y44000D02*
X4860D01*
X4500Y43640D02*
Y44360D01*
X7200Y46000D02*
X7800D01*
X7500Y45700D02*
Y46300D01*
X4700Y45000D02*
X5300D01*
X5000Y44700D02*
Y45300D01*
X33508Y58000D02*
X34492D01*
X34000Y57508D02*
Y58492D01*
X1508Y48500D02*
X2492D01*
X2000Y48008D02*
Y48992D01*
X1508Y61300D02*
X2492D01*
X2000Y60808D02*
Y61792D01*
X40608Y48500D02*
X41592D01*
X41100Y48008D02*
Y48992D01*
X40508Y2000D02*
X41492D01*
X41000Y1508D02*
Y2492D01*
X1508Y2000D02*
X2492D01*
X2000Y1508D02*
Y2492D01*
X23083Y62176D02*
X23319D01*
X23201Y62058D02*
Y62294D01*
X23083Y60531D02*
X23319D01*
X23201Y60413D02*
Y60649D01*
X19681Y62176D02*
X19917D01*
X19799Y62058D02*
Y62294D01*
X19681Y60531D02*
X19917D01*
X19799Y60413D02*
Y60649D01*
X22510Y60728D02*
X22766D01*
X22638Y60600D02*
Y60856D01*
X20234Y60728D02*
X20490D01*
X20362Y60600D02*
Y60856D01*
X13868Y58735D02*
X14144D01*
X14006Y58598D02*
Y58873D01*
X14656Y58735D02*
X14931D01*
X14794Y58598D02*
Y58873D01*
X25150Y56906D02*
X25450D01*
X25300Y56756D02*
Y57056D01*
X25103Y57694D02*
X25497D01*
X25300Y57497D02*
Y57891D01*
X15650Y56794D02*
X15950D01*
X15800Y56644D02*
Y56944D01*
X15603Y56006D02*
X15997D01*
X15800Y55809D02*
Y56203D01*
X40941Y61000D02*
X41059D01*
X41000Y60941D02*
Y61059D01*
X41941Y59000D02*
X42059D01*
X42000Y58941D02*
Y59059D01*
X40941Y57000D02*
X41059D01*
X41000Y56941D02*
Y57059D01*
X41941Y55000D02*
X42059D01*
X42000Y54941D02*
Y55059D01*
X36941Y61000D02*
X37059D01*
X37000Y60941D02*
Y61059D01*
X36941Y57000D02*
X37059D01*
X37000Y56941D02*
Y57059D01*
X34941Y61000D02*
X35059D01*
X35000Y60941D02*
Y61059D01*
X34941Y57000D02*
X35059D01*
X35000Y56941D02*
Y57059D01*
X32941Y61000D02*
X33059D01*
X33000Y60941D02*
Y61059D01*
X32941Y57000D02*
X33059D01*
X33000Y56941D02*
Y57059D01*
X33941Y55000D02*
X34059D01*
X34000Y54941D02*
Y55059D01*
X30941Y57000D02*
X31059D01*
X31000Y56941D02*
Y57059D01*
X31941Y55000D02*
X32059D01*
X32000Y54941D02*
Y55059D01*
X29941Y55000D02*
X30059D01*
X30000Y54941D02*
Y55059D01*
X26941Y57000D02*
X27059D01*
X27000Y56941D02*
Y57059D01*
X27941Y55000D02*
X28059D01*
X28000Y54941D02*
Y55059D01*
X24941Y61000D02*
X25059D01*
X25000Y60941D02*
Y61059D01*
X24941Y53000D02*
X25059D01*
X25000Y52941D02*
Y53059D01*
X23941Y51000D02*
X24059D01*
X24000Y50941D02*
Y51059D01*
X22941Y49000D02*
X23059D01*
X23000Y48941D02*
Y49059D01*
X20941Y49000D02*
X21059D01*
X21000Y48941D02*
Y49059D01*
X18941Y61000D02*
X19059D01*
X19000Y60941D02*
Y61059D01*
X18941Y57000D02*
X19059D01*
X19000Y56941D02*
Y57059D01*
X16941Y49000D02*
X17059D01*
X17000Y48941D02*
Y49059D01*
X14941Y61000D02*
X15059D01*
X15000Y60941D02*
Y61059D01*
X15941Y59000D02*
X16059D01*
X16000Y58941D02*
Y59059D01*
X14941Y57000D02*
X15059D01*
X15000Y56941D02*
Y57059D01*
X14941Y49000D02*
X15059D01*
X15000Y48941D02*
Y49059D01*
X12941Y61000D02*
X13059D01*
X13000Y60941D02*
Y61059D01*
X12941Y57000D02*
X13059D01*
X13000Y56941D02*
Y57059D01*
X13941Y55000D02*
X14059D01*
X14000Y54941D02*
Y55059D01*
X12941Y53000D02*
X13059D01*
X13000Y52941D02*
Y53059D01*
X13941Y51000D02*
X14059D01*
X14000Y50941D02*
Y51059D01*
X12941Y49000D02*
X13059D01*
X13000Y48941D02*
Y49059D01*
X10941Y61000D02*
X11059D01*
X11000Y60941D02*
Y61059D01*
X11941Y59000D02*
X12059D01*
X12000Y58941D02*
Y59059D01*
X10941Y57000D02*
X11059D01*
X11000Y56941D02*
Y57059D01*
X11941Y55000D02*
X12059D01*
X12000Y54941D02*
Y55059D01*
X10941Y53000D02*
X11059D01*
X11000Y52941D02*
Y53059D01*
X11941Y51000D02*
X12059D01*
X12000Y50941D02*
Y51059D01*
X10941Y49000D02*
X11059D01*
X11000Y48941D02*
Y49059D01*
X9941Y55000D02*
X10059D01*
X10000Y54941D02*
Y55059D01*
X8941Y53000D02*
X9059D01*
X9000Y52941D02*
Y53059D01*
X9941Y51000D02*
X10059D01*
X10000Y50941D02*
Y51059D01*
X8941Y49000D02*
X9059D01*
X9000Y48941D02*
Y49059D01*
X7941Y55000D02*
X8059D01*
X8000Y54941D02*
Y55059D01*
X6941Y53000D02*
X7059D01*
X7000Y52941D02*
Y53059D01*
X7941Y51000D02*
X8059D01*
X8000Y50941D02*
Y51059D01*
X6941Y49000D02*
X7059D01*
X7000Y48941D02*
Y49059D01*
X4941Y61000D02*
X5059D01*
X5000Y60941D02*
Y61059D01*
X4941Y57000D02*
X5059D01*
X5000Y56941D02*
Y57059D01*
X5941Y55000D02*
X6059D01*
X6000Y54941D02*
Y55059D01*
X5941Y51000D02*
X6059D01*
X6000Y50941D02*
Y51059D01*
X4941Y49000D02*
X5059D01*
X5000Y48941D02*
Y49059D01*
X2941Y57000D02*
X3059D01*
X3000Y56941D02*
Y57059D01*
X3941Y55000D02*
X4059D01*
X4000Y54941D02*
Y55059D01*
X3941Y51000D02*
X4059D01*
X4000Y50941D02*
Y51059D01*
X941Y57000D02*
X1059D01*
X1000Y56941D02*
Y57059D01*
X1941Y55000D02*
X2059D01*
X2000Y54941D02*
Y55059D01*
X941Y53000D02*
X1059D01*
X1000Y52941D02*
Y53059D01*
X1941Y51000D02*
X2059D01*
X2000Y50941D02*
Y51059D01*
X41441Y39000D02*
X41559D01*
X41500Y38941D02*
Y39059D01*
X41441Y29000D02*
X41559D01*
X41500Y28941D02*
Y29059D01*
X41441Y19000D02*
X41559D01*
X41500Y18941D02*
Y19059D01*
X41441Y9000D02*
X41559D01*
X41500Y8941D02*
Y9059D01*
X38941Y4000D02*
X39059D01*
X39000Y3941D02*
Y4059D01*
X36441Y39000D02*
X36559D01*
X36500Y38941D02*
Y39059D01*
X33941Y34000D02*
X34059D01*
X34000Y33941D02*
Y34059D01*
X33941Y24000D02*
X34059D01*
X34000Y23941D02*
Y24059D01*
X36441Y19000D02*
X36559D01*
X36500Y18941D02*
Y19059D01*
X36441Y9000D02*
X36559D01*
X36500Y8941D02*
Y9059D01*
X33941Y4000D02*
X34059D01*
X34000Y3941D02*
Y4059D01*
X28941Y34000D02*
X29059D01*
X29000Y33941D02*
Y34059D01*
X28941Y24000D02*
X29059D01*
X29000Y23941D02*
Y24059D01*
X28941Y4000D02*
X29059D01*
X29000Y3941D02*
Y4059D01*
X26441Y39000D02*
X26559D01*
X26500Y38941D02*
Y39059D01*
X26441Y19000D02*
X26559D01*
X26500Y18941D02*
Y19059D01*
X26441Y9000D02*
X26559D01*
X26500Y8941D02*
Y9059D01*
X23941Y4000D02*
X24059D01*
X24000Y3941D02*
Y4059D01*
X21441Y39000D02*
X21559D01*
X21500Y38941D02*
Y39059D01*
X18941Y34000D02*
X19059D01*
X19000Y33941D02*
Y34059D01*
X18941Y24000D02*
X19059D01*
X19000Y23941D02*
Y24059D01*
X21441Y19000D02*
X21559D01*
X21500Y18941D02*
Y19059D01*
X21441Y9000D02*
X21559D01*
X21500Y8941D02*
Y9059D01*
X18941Y4000D02*
X19059D01*
X19000Y3941D02*
Y4059D01*
X13941Y34000D02*
X14059D01*
X14000Y33941D02*
Y34059D01*
X13941Y24000D02*
X14059D01*
X14000Y23941D02*
Y24059D01*
X13941Y4000D02*
X14059D01*
X14000Y3941D02*
Y4059D01*
X11441Y39000D02*
X11559D01*
X11500Y38941D02*
Y39059D01*
X11441Y19000D02*
X11559D01*
X11500Y18941D02*
Y19059D01*
X11441Y9000D02*
X11559D01*
X11500Y8941D02*
Y9059D01*
X8941Y4000D02*
X9059D01*
X9000Y3941D02*
Y4059D01*
X6441Y39000D02*
X6559D01*
X6500Y38941D02*
Y39059D01*
X3941Y34000D02*
X4059D01*
X4000Y33941D02*
Y34059D01*
X3941Y24000D02*
X4059D01*
X4000Y23941D02*
Y24059D01*
X6441Y19000D02*
X6559D01*
X6500Y18941D02*
Y19059D01*
X6441Y9000D02*
X6559D01*
X6500Y8941D02*
Y9059D01*
X3941Y4000D02*
X4059D01*
X4000Y3941D02*
Y4059D01*
X21541Y60900D02*
X21659D01*
X21600Y60841D02*
Y60959D01*
X20941Y60900D02*
X21059D01*
X21000Y60841D02*
Y60959D01*
X33041Y61800D02*
X33159D01*
X33100Y61741D02*
Y61859D01*
X29941Y61800D02*
X30059D01*
X30000Y61741D02*
Y61859D01*
X21009Y52500D02*
X21127D01*
X21068Y52441D02*
Y52559D01*
X20841Y50400D02*
X20959D01*
X20900Y50341D02*
Y50459D01*
X20941Y49700D02*
X21059D01*
X21000Y49641D02*
Y49759D01*
X19141Y49600D02*
X19259D01*
X19200Y49541D02*
Y49659D01*
X24902Y48500D02*
X25098D01*
X25000Y48402D02*
Y48598D01*
X23841Y54800D02*
X23959D01*
X23900Y54741D02*
Y54859D01*
X23341Y54900D02*
X23459D01*
X23400Y54841D02*
Y54959D01*
X25541Y7800D02*
X25659D01*
X25600Y7741D02*
Y7859D01*
X25241Y15300D02*
X25359D01*
X25300Y15241D02*
Y15359D01*
X25141Y22800D02*
X25259D01*
X25200Y22741D02*
Y22859D01*
X25118Y30300D02*
X25236D01*
X25177Y30241D02*
Y30359D01*
X24941Y37800D02*
X25059D01*
X25000Y37741D02*
Y37859D01*
X25841Y42000D02*
X25959D01*
X25900Y41941D02*
Y42059D01*
X26141Y41800D02*
X26259D01*
X26200Y41741D02*
Y41859D01*
X26441Y41800D02*
X26559D01*
X26500Y41741D02*
Y41859D01*
X17041Y41600D02*
X17159D01*
X17100Y41541D02*
Y41659D01*
X24341Y41300D02*
X24459D01*
X24400Y41241D02*
Y41359D01*
X27076Y41900D02*
X27194D01*
X27135Y41841D02*
Y41959D01*
X26803Y41784D02*
X26921D01*
X26862Y41725D02*
Y41843D01*
X9341Y41900D02*
X9459D01*
X9400Y41841D02*
Y41959D01*
X30341Y41600D02*
X30459D01*
X30400Y41541D02*
Y41659D01*
X37941Y41900D02*
X38059D01*
X38000Y41841D02*
Y41959D01*
X33902Y59600D02*
X34098D01*
X34000Y59502D02*
Y59698D01*
X36402Y58700D02*
X36598D01*
X36500Y58602D02*
Y58798D01*
X39041Y55500D02*
X39159D01*
X39100Y55441D02*
Y55559D01*
X2141Y54300D02*
X2259D01*
X2200Y54241D02*
Y54359D01*
X22641Y59223D02*
X22759D01*
X22700Y59164D02*
Y59282D01*
X22941Y57500D02*
X23059D01*
X23000Y57441D02*
Y57559D01*
X20041Y58777D02*
X20159D01*
X20100Y58718D02*
Y58836D01*
X18080Y57339D02*
X18198D01*
X18139Y57280D02*
Y57398D01*
X19441Y56500D02*
X19559D01*
X19500Y56441D02*
Y56559D01*
X18702Y57900D02*
X18898D01*
X18800Y57802D02*
Y57998D01*
X21841Y57100D02*
X21959D01*
X21900Y57041D02*
Y57159D01*
X20841Y57300D02*
X20959D01*
X20900Y57241D02*
Y57359D01*
X21441Y57100D02*
X21559D01*
X21500Y57041D02*
Y57159D01*
X21141Y57200D02*
X21259D01*
X21200Y57141D02*
Y57259D01*
X22406Y57433D02*
X22525D01*
X22466Y57374D02*
Y57492D01*
X22133Y57292D02*
X22251D01*
X22192Y57233D02*
Y57351D01*
X6402Y58300D02*
X6598D01*
X6500Y58202D02*
Y58398D01*
X17341Y60500D02*
X17459D01*
X17400Y60441D02*
Y60559D01*
X4841Y56600D02*
X4959D01*
X4900Y56541D02*
Y56659D01*
X9602Y57800D02*
X9798D01*
X9700Y57702D02*
Y57898D01*
X7602Y59200D02*
X7798D01*
X7700Y59102D02*
Y59298D01*
X5002Y57600D02*
X5198D01*
X5100Y57502D02*
Y57698D01*
X8341Y55900D02*
X8459D01*
X8400Y55841D02*
Y55959D01*
X6102Y56800D02*
X6298D01*
X6200Y56702D02*
Y56898D01*
X4841Y54200D02*
X4959D01*
X4900Y54141D02*
Y54259D01*
X18502Y48000D02*
X18698D01*
X18600Y47902D02*
Y48098D01*
X19341Y54700D02*
X19459D01*
X19400Y54641D02*
Y54759D01*
X19141Y50900D02*
X19259D01*
X19200Y50841D02*
Y50959D01*
X19141Y50200D02*
X19259D01*
X19200Y50141D02*
Y50259D01*
X17741Y50300D02*
X17859D01*
X17800Y50241D02*
Y50359D01*
X17441Y53200D02*
X17559D01*
X17500Y53141D02*
Y53259D01*
X15341Y52600D02*
X15459D01*
X15400Y52541D02*
Y52659D01*
X15341Y51600D02*
X15459D01*
X15400Y51541D02*
Y51659D01*
X20348Y53800D02*
X20467D01*
X20407Y53741D02*
Y53859D01*
X14341Y52600D02*
X14459D01*
X14400Y52541D02*
Y52659D01*
X18241Y53574D02*
X18359D01*
X18300Y53515D02*
Y53633D01*
X17541Y52400D02*
X17659D01*
X17600Y52341D02*
Y52459D01*
X16341Y52300D02*
X16459D01*
X16400Y52241D02*
Y52359D01*
X18056Y50960D02*
X18174D01*
X18115Y50901D02*
Y51019D01*
X22641Y50600D02*
X22759D01*
X22700Y50541D02*
Y50659D01*
X24468Y54664D02*
X24586D01*
X24527Y54605D02*
Y54723D01*
X24288Y54900D02*
X24406D01*
X24347Y54841D02*
Y54959D01*
X24580Y55239D02*
X24698D01*
X24639Y55180D02*
Y55298D01*
X25118Y55200D02*
X25236D01*
X25177Y55141D02*
Y55259D01*
X24921Y54977D02*
X25039D01*
X24980Y54918D02*
Y55037D01*
X30541Y59200D02*
X30659D01*
X30600Y59141D02*
Y59259D01*
X25841Y62000D02*
X25959D01*
X25900Y61941D02*
Y62059D01*
X24441Y60600D02*
X24559D01*
X24500Y60541D02*
Y60659D01*
M02*
