G04*
G04 #@! TF.GenerationSoftware,Altium Limited,Altium Designer,22.7.1 (60)*
G04*
G04 Layer_Color=32896*
%FSLAX25Y25*%
%MOIN*%
G70*
G04*
G04 #@! TF.SameCoordinates,C603BF2E-B12D-4F6D-87B7-6185641273B1*
G04*
G04*
G04 #@! TF.FilePolarity,Positive*
G04*
G01*
G75*
%ADD10C,0.00984*%
%ADD11C,0.01000*%
%ADD12C,0.00787*%
D10*
X88490Y558740D02*
G03*
X88490Y558740I-492J0D01*
G01*
X171354Y626902D02*
G03*
X171354Y626902I-492J0D01*
G01*
X393878Y50000D02*
G03*
X393878Y50000I-492J0D01*
G01*
X318878D02*
G03*
X318878Y50000I-492J0D01*
G01*
X243878D02*
G03*
X243878Y50000I-492J0D01*
G01*
X168878D02*
G03*
X168878Y50000I-492J0D01*
G01*
X93878D02*
G03*
X93878Y50000I-492J0D01*
G01*
X393878Y125000D02*
G03*
X393878Y125000I-492J0D01*
G01*
X318878D02*
G03*
X318878Y125000I-492J0D01*
G01*
X243878D02*
G03*
X243878Y125000I-492J0D01*
G01*
X168878D02*
G03*
X168878Y125000I-492J0D01*
G01*
X93878D02*
G03*
X93878Y125000I-492J0D01*
G01*
X393878Y200000D02*
G03*
X393878Y200000I-492J0D01*
G01*
X318878D02*
G03*
X318878Y200000I-492J0D01*
G01*
X243878D02*
G03*
X243878Y200000I-492J0D01*
G01*
X168878D02*
G03*
X168878Y200000I-492J0D01*
G01*
X93878D02*
G03*
X93878Y200000I-492J0D01*
G01*
X393878Y275000D02*
G03*
X393878Y275000I-492J0D01*
G01*
X318878D02*
G03*
X318878Y275000I-492J0D01*
G01*
X243878D02*
G03*
X243878Y275000I-492J0D01*
G01*
X168878D02*
G03*
X168878Y275000I-492J0D01*
G01*
X93878D02*
G03*
X93878Y275000I-492J0D01*
G01*
X393878Y350000D02*
G03*
X393878Y350000I-492J0D01*
G01*
X318878D02*
G03*
X318878Y350000I-492J0D01*
G01*
X243878D02*
G03*
X243878Y350000I-492J0D01*
G01*
X168878D02*
G03*
X168878Y350000I-492J0D01*
G01*
X93878D02*
G03*
X93878Y350000I-492J0D01*
G01*
X393878Y425000D02*
G03*
X393878Y425000I-492J0D01*
G01*
X318878D02*
G03*
X318878Y425000I-492J0D01*
G01*
X243878D02*
G03*
X243878Y425000I-492J0D01*
G01*
X168878D02*
G03*
X168878Y425000I-492J0D01*
G01*
X93878D02*
G03*
X93878Y425000I-492J0D01*
G01*
D11*
X130736Y562500D02*
G03*
X130736Y562500I-500J0D01*
G01*
X157875Y533500D02*
G03*
X160375Y533500I1250J0D01*
G01*
X116126Y540158D02*
X131874Y540158D01*
X116126Y559842D02*
X131874D01*
X81000Y576000D02*
Y582000D01*
X74866Y582248D02*
X83134D01*
X74866Y575752D02*
X83134Y575752D01*
X153000Y533500D02*
X157875D01*
X153000Y513500D02*
Y533500D01*
Y513500D02*
X165250D01*
X160375Y533500D02*
X165250D01*
Y513500D02*
Y533500D01*
X163750Y513500D02*
Y533500D01*
X248916Y495666D02*
X249749Y496499D01*
X251415D01*
X252248Y495666D01*
Y492334D01*
X251415Y491501D01*
X249749D01*
X248916Y492334D01*
X247250Y491501D02*
X245584D01*
X246416D01*
Y496499D01*
X247250Y495666D01*
X240585Y491501D02*
Y496499D01*
X243084Y494000D01*
X239752D01*
X313916Y592666D02*
X314749Y593499D01*
X316415D01*
X317248Y592666D01*
Y589334D01*
X316415Y588501D01*
X314749D01*
X313916Y589334D01*
X312250Y588501D02*
X310583D01*
X311417D01*
Y593499D01*
X312250Y592666D01*
X308084Y593499D02*
X304752D01*
Y592666D01*
X308084Y589334D01*
Y588501D01*
X329916Y580666D02*
X330749Y581499D01*
X332415D01*
X333248Y580666D01*
Y577334D01*
X332415Y576501D01*
X330749D01*
X329916Y577334D01*
X328250Y576501D02*
X326584D01*
X327416D01*
Y581499D01*
X328250Y580666D01*
X320752Y581499D02*
X322418Y580666D01*
X324084Y579000D01*
Y577334D01*
X323251Y576501D01*
X321585D01*
X320752Y577334D01*
Y578167D01*
X321585Y579000D01*
X324084D01*
X365916Y573666D02*
X366749Y574499D01*
X368415D01*
X369248Y573666D01*
Y570334D01*
X368415Y569501D01*
X366749D01*
X365916Y570334D01*
X364250Y569501D02*
X362583D01*
X363417D01*
Y574499D01*
X364250Y573666D01*
X360084D02*
X359251Y574499D01*
X357585D01*
X356752Y573666D01*
Y572833D01*
X357585Y572000D01*
X356752Y571167D01*
Y570334D01*
X357585Y569501D01*
X359251D01*
X360084Y570334D01*
Y571167D01*
X359251Y572000D01*
X360084Y572833D01*
Y573666D01*
X359251Y572000D02*
X357585D01*
X364165Y581501D02*
Y586499D01*
X361666D01*
X360833Y585666D01*
Y584000D01*
X361666Y583167D01*
X364165D01*
X362499D02*
X360833Y581501D01*
X359167Y585666D02*
X358334Y586499D01*
X356668D01*
X355835Y585666D01*
Y584833D01*
X356668Y584000D01*
X355835Y583167D01*
Y582334D01*
X356668Y581501D01*
X358334D01*
X359167Y582334D01*
Y583167D01*
X358334Y584000D01*
X359167Y584833D01*
Y585666D01*
X358334Y584000D02*
X356668D01*
X107499Y570248D02*
X102501D01*
Y567749D01*
X103334Y566916D01*
X105000D01*
X105833Y567749D01*
Y570248D01*
Y568582D02*
X107499Y566916D01*
Y565250D02*
Y563584D01*
Y564417D01*
X102501D01*
X103334Y565250D01*
Y561084D02*
X102501Y560251D01*
Y558585D01*
X103334Y557752D01*
X104167D01*
X105000Y558585D01*
Y559418D01*
Y558585D01*
X105833Y557752D01*
X106666D01*
X107499Y558585D01*
Y560251D01*
X106666Y561084D01*
X127165Y536499D02*
Y532334D01*
X126332Y531501D01*
X124666D01*
X123833Y532334D01*
Y536499D01*
X118835D02*
X122167D01*
Y534000D01*
X120501Y534833D01*
X119668D01*
X118835Y534000D01*
Y532334D01*
X119668Y531501D01*
X121334D01*
X122167Y532334D01*
X177248Y604501D02*
Y609499D01*
X174749D01*
X173916Y608666D01*
Y607000D01*
X174749Y606167D01*
X177248D01*
X175582D02*
X173916Y604501D01*
X172250D02*
X170583D01*
X171416D01*
Y609499D01*
X172250Y608666D01*
X168084D02*
X167251Y609499D01*
X165585D01*
X164752Y608666D01*
Y605334D01*
X165585Y604501D01*
X167251D01*
X168084Y605334D01*
Y608666D01*
X86499Y534666D02*
X87332Y535499D01*
X88998D01*
X89831Y534666D01*
Y531334D01*
X88998Y530501D01*
X87332D01*
X86499Y531334D01*
X81501Y530501D02*
X84833D01*
X81501Y533833D01*
Y534666D01*
X82334Y535499D01*
X84000D01*
X84833Y534666D01*
X79835Y530501D02*
X78169D01*
X79002D01*
Y535499D01*
X79835Y534666D01*
X99248Y571501D02*
Y576499D01*
X96749D01*
X95916Y575666D01*
Y574000D01*
X96749Y573167D01*
X99248D01*
X97582D02*
X95916Y571501D01*
X94250D02*
X92584D01*
X93417D01*
Y576499D01*
X94250Y575666D01*
X86752Y571501D02*
X90084D01*
X86752Y574833D01*
Y575666D01*
X87585Y576499D01*
X89251D01*
X90084Y575666D01*
X96415Y563501D02*
Y568499D01*
X93916D01*
X93083Y567666D01*
Y566000D01*
X93916Y565167D01*
X96415D01*
X94749D02*
X93083Y563501D01*
X91417D02*
X89750D01*
X90583D01*
Y568499D01*
X91417Y567666D01*
X87251Y563501D02*
X85585D01*
X86418D01*
Y568499D01*
X87251Y567666D01*
X71665Y580499D02*
Y575501D01*
X69165D01*
X68332Y576334D01*
Y579666D01*
X69165Y580499D01*
X71665D01*
X66666Y579666D02*
X65833Y580499D01*
X64167D01*
X63334Y579666D01*
Y578833D01*
X64167Y578000D01*
X65000D01*
X64167D01*
X63334Y577167D01*
Y576334D01*
X64167Y575501D01*
X65833D01*
X66666Y576334D01*
X58336Y575501D02*
X61668D01*
X58336Y578833D01*
Y579666D01*
X59169Y580499D01*
X60835D01*
X61668Y579666D01*
X139332Y578666D02*
X140165Y579499D01*
X141831D01*
X142665Y578666D01*
Y575334D01*
X141831Y574501D01*
X140165D01*
X139332Y575334D01*
X134334Y574501D02*
X137666D01*
X134334Y577833D01*
Y578666D01*
X135167Y579499D01*
X136833D01*
X137666Y578666D01*
X129335Y574501D02*
X132668D01*
X129335Y577833D01*
Y578666D01*
X130169Y579499D01*
X131835D01*
X132668Y578666D01*
X106332Y534666D02*
X107165Y535499D01*
X108831D01*
X109664Y534666D01*
Y531334D01*
X108831Y530501D01*
X107165D01*
X106332Y531334D01*
X101334Y530501D02*
X104666D01*
X101334Y533833D01*
Y534666D01*
X102167Y535499D01*
X103833D01*
X104666Y534666D01*
X99668D02*
X98835Y535499D01*
X97169D01*
X96336Y534666D01*
Y533833D01*
X97169Y533000D01*
X98002D01*
X97169D01*
X96336Y532167D01*
Y531334D01*
X97169Y530501D01*
X98835D01*
X99668Y531334D01*
X83165Y545499D02*
Y541334D01*
X82332Y540501D01*
X80666D01*
X79833Y541334D01*
Y545499D01*
X75668Y540501D02*
Y545499D01*
X78167Y543000D01*
X74835D01*
X155165Y510499D02*
Y506334D01*
X154332Y505501D01*
X152666D01*
X151833Y506334D01*
Y510499D01*
X150167Y509666D02*
X149334Y510499D01*
X147668D01*
X146835Y509666D01*
Y508833D01*
X147668Y508000D01*
X148501D01*
X147668D01*
X146835Y507167D01*
Y506334D01*
X147668Y505501D01*
X149334D01*
X150167Y506334D01*
X260165Y602501D02*
Y607499D01*
X257666D01*
X256833Y606666D01*
Y605000D01*
X257666Y604167D01*
X260165D01*
X258499D02*
X256833Y602501D01*
X255167Y603334D02*
X254334Y602501D01*
X252668D01*
X251835Y603334D01*
Y606666D01*
X252668Y607499D01*
X254334D01*
X255167Y606666D01*
Y605833D01*
X254334Y605000D01*
X251835D01*
X198165Y493501D02*
Y498499D01*
X195666D01*
X194833Y497666D01*
Y496000D01*
X195666Y495167D01*
X198165D01*
X196499D02*
X194833Y493501D01*
X189835Y498499D02*
X191501Y497666D01*
X193167Y496000D01*
Y494334D01*
X192334Y493501D01*
X190668D01*
X189835Y494334D01*
Y495167D01*
X190668Y496000D01*
X193167D01*
X211165Y620501D02*
Y625499D01*
X208666D01*
X207833Y624666D01*
Y623000D01*
X208666Y622167D01*
X211165D01*
X209499D02*
X207833Y620501D01*
X202835Y625499D02*
X206167D01*
Y623000D01*
X204501Y623833D01*
X203668D01*
X202835Y623000D01*
Y621334D01*
X203668Y620501D01*
X205334D01*
X206167Y621334D01*
X226165Y620501D02*
Y625499D01*
X223666D01*
X222833Y624666D01*
Y623000D01*
X223666Y622167D01*
X226165D01*
X224499D02*
X222833Y620501D01*
X218668D02*
Y625499D01*
X221167Y623000D01*
X217835D01*
X59165Y529501D02*
Y534499D01*
X56666D01*
X55833Y533666D01*
Y532000D01*
X56666Y531167D01*
X59165D01*
X57499D02*
X55833Y529501D01*
X54167Y533666D02*
X53334Y534499D01*
X51668D01*
X50835Y533666D01*
Y532833D01*
X51668Y532000D01*
X52501D01*
X51668D01*
X50835Y531167D01*
Y530334D01*
X51668Y529501D01*
X53334D01*
X54167Y530334D01*
X19165Y529501D02*
Y534499D01*
X16666D01*
X15833Y533666D01*
Y532000D01*
X16666Y531167D01*
X19165D01*
X17499D02*
X15833Y529501D01*
X10835D02*
X14167D01*
X10835Y532833D01*
Y533666D01*
X11668Y534499D01*
X13334D01*
X14167Y533666D01*
X39499Y570332D02*
X34501D01*
Y567833D01*
X35334Y567000D01*
X37000D01*
X37833Y567833D01*
Y570332D01*
Y568666D02*
X39499Y567000D01*
Y565334D02*
Y563668D01*
Y564501D01*
X34501D01*
X35334Y565334D01*
X68000Y593334D02*
Y596666D01*
X68833Y597499D01*
X70499D01*
X71332Y596666D01*
Y593334D01*
X70499Y592501D01*
X68833D01*
X69666Y594167D02*
X68000Y592501D01*
X68833D02*
X68000Y593334D01*
X66334Y592501D02*
X64668D01*
X65501D01*
Y597499D01*
X66334Y596666D01*
X190831Y620499D02*
Y615501D01*
X188332D01*
X187499Y616334D01*
Y619666D01*
X188332Y620499D01*
X190831D01*
X185833Y619666D02*
X185000Y620499D01*
X183334D01*
X182501Y619666D01*
Y618833D01*
X183334Y618000D01*
X184167D01*
X183334D01*
X182501Y617167D01*
Y616334D01*
X183334Y615501D01*
X185000D01*
X185833Y616334D01*
X180835Y615501D02*
X179169D01*
X180002D01*
Y620499D01*
X180835Y619666D01*
X391400Y44598D02*
Y39600D01*
X388901D01*
X388068Y40433D01*
Y43765D01*
X388901Y44598D01*
X391400D01*
X386402Y43765D02*
X385569Y44598D01*
X383902D01*
X383069Y43765D01*
Y42932D01*
X383902Y42099D01*
X384735D01*
X383902D01*
X383069Y41266D01*
Y40433D01*
X383902Y39600D01*
X385569D01*
X386402Y40433D01*
X381403Y43765D02*
X380570Y44598D01*
X378904D01*
X378071Y43765D01*
Y40433D01*
X378904Y39600D01*
X380570D01*
X381403Y40433D01*
Y43765D01*
X316400Y44598D02*
Y39600D01*
X313901D01*
X313068Y40433D01*
Y43765D01*
X313901Y44598D01*
X316400D01*
X308069Y39600D02*
X311402D01*
X308069Y42932D01*
Y43765D01*
X308902Y44598D01*
X310569D01*
X311402Y43765D01*
X306403Y40433D02*
X305570Y39600D01*
X303904D01*
X303071Y40433D01*
Y43765D01*
X303904Y44598D01*
X305570D01*
X306403Y43765D01*
Y42932D01*
X305570Y42099D01*
X303071D01*
X241400Y44598D02*
Y39600D01*
X238901D01*
X238068Y40433D01*
Y43765D01*
X238901Y44598D01*
X241400D01*
X233069Y39600D02*
X236402D01*
X233069Y42932D01*
Y43765D01*
X233902Y44598D01*
X235569D01*
X236402Y43765D01*
X231403D02*
X230570Y44598D01*
X228904D01*
X228071Y43765D01*
Y42932D01*
X228904Y42099D01*
X228071Y41266D01*
Y40433D01*
X228904Y39600D01*
X230570D01*
X231403Y40433D01*
Y41266D01*
X230570Y42099D01*
X231403Y42932D01*
Y43765D01*
X230570Y42099D02*
X228904D01*
X166400Y44598D02*
Y39600D01*
X163901D01*
X163068Y40433D01*
Y43765D01*
X163901Y44598D01*
X166400D01*
X158069Y39600D02*
X161402D01*
X158069Y42932D01*
Y43765D01*
X158902Y44598D01*
X160569D01*
X161402Y43765D01*
X156403Y44598D02*
X153071D01*
Y43765D01*
X156403Y40433D01*
Y39600D01*
X91400Y44598D02*
Y39600D01*
X88901D01*
X88068Y40433D01*
Y43765D01*
X88901Y44598D01*
X91400D01*
X83069Y39600D02*
X86402D01*
X83069Y42932D01*
Y43765D01*
X83902Y44598D01*
X85569D01*
X86402Y43765D01*
X78071Y44598D02*
X79737Y43765D01*
X81403Y42099D01*
Y40433D01*
X80570Y39600D01*
X78904D01*
X78071Y40433D01*
Y41266D01*
X78904Y42099D01*
X81403D01*
X391400Y119598D02*
Y114600D01*
X388901D01*
X388068Y115433D01*
Y118765D01*
X388901Y119598D01*
X391400D01*
X383069Y114600D02*
X386402D01*
X383069Y117932D01*
Y118765D01*
X383902Y119598D01*
X385569D01*
X386402Y118765D01*
X378071Y119598D02*
X381403D01*
Y117099D01*
X379737Y117932D01*
X378904D01*
X378071Y117099D01*
Y115433D01*
X378904Y114600D01*
X380570D01*
X381403Y115433D01*
X316400Y119598D02*
Y114600D01*
X313901D01*
X313068Y115433D01*
Y118765D01*
X313901Y119598D01*
X316400D01*
X308069Y114600D02*
X311402D01*
X308069Y117932D01*
Y118765D01*
X308902Y119598D01*
X310569D01*
X311402Y118765D01*
X303904Y114600D02*
Y119598D01*
X306403Y117099D01*
X303071D01*
X241400Y119598D02*
Y114600D01*
X238901D01*
X238068Y115433D01*
Y118765D01*
X238901Y119598D01*
X241400D01*
X233069Y114600D02*
X236402D01*
X233069Y117932D01*
Y118765D01*
X233902Y119598D01*
X235569D01*
X236402Y118765D01*
X231403D02*
X230570Y119598D01*
X228904D01*
X228071Y118765D01*
Y117932D01*
X228904Y117099D01*
X229737D01*
X228904D01*
X228071Y116266D01*
Y115433D01*
X228904Y114600D01*
X230570D01*
X231403Y115433D01*
X166400Y119598D02*
Y114600D01*
X163901D01*
X163068Y115433D01*
Y118765D01*
X163901Y119598D01*
X166400D01*
X158069Y114600D02*
X161402D01*
X158069Y117932D01*
Y118765D01*
X158902Y119598D01*
X160569D01*
X161402Y118765D01*
X153071Y114600D02*
X156403D01*
X153071Y117932D01*
Y118765D01*
X153904Y119598D01*
X155570D01*
X156403Y118765D01*
X89700Y119598D02*
Y114600D01*
X87201D01*
X86368Y115433D01*
Y118765D01*
X87201Y119598D01*
X89700D01*
X81369Y114600D02*
X84702D01*
X81369Y117932D01*
Y118765D01*
X82202Y119598D01*
X83869D01*
X84702Y118765D01*
X79703Y114600D02*
X78037D01*
X78870D01*
Y119598D01*
X79703Y118765D01*
X391400Y194598D02*
Y189600D01*
X388901D01*
X388068Y190433D01*
Y193765D01*
X388901Y194598D01*
X391400D01*
X383069Y189600D02*
X386402D01*
X383069Y192932D01*
Y193765D01*
X383902Y194598D01*
X385569D01*
X386402Y193765D01*
X381403D02*
X380570Y194598D01*
X378904D01*
X378071Y193765D01*
Y190433D01*
X378904Y189600D01*
X380570D01*
X381403Y190433D01*
Y193765D01*
X315500Y194598D02*
Y189600D01*
X313001D01*
X312168Y190433D01*
Y193765D01*
X313001Y194598D01*
X315500D01*
X310502Y189600D02*
X308836D01*
X309669D01*
Y194598D01*
X310502Y193765D01*
X306336Y190433D02*
X305503Y189600D01*
X303837D01*
X303004Y190433D01*
Y193765D01*
X303837Y194598D01*
X305503D01*
X306336Y193765D01*
Y192932D01*
X305503Y192099D01*
X303004D01*
X240500Y194598D02*
Y189600D01*
X238001D01*
X237168Y190433D01*
Y193765D01*
X238001Y194598D01*
X240500D01*
X235502Y189600D02*
X233836D01*
X234669D01*
Y194598D01*
X235502Y193765D01*
X231336D02*
X230503Y194598D01*
X228837D01*
X228004Y193765D01*
Y192932D01*
X228837Y192099D01*
X228004Y191266D01*
Y190433D01*
X228837Y189600D01*
X230503D01*
X231336Y190433D01*
Y191266D01*
X230503Y192099D01*
X231336Y192932D01*
Y193765D01*
X230503Y192099D02*
X228837D01*
X165500Y194598D02*
Y189600D01*
X163001D01*
X162168Y190433D01*
Y193765D01*
X163001Y194598D01*
X165500D01*
X160502Y189600D02*
X158835D01*
X159669D01*
Y194598D01*
X160502Y193765D01*
X156336Y194598D02*
X153004D01*
Y193765D01*
X156336Y190433D01*
Y189600D01*
X90500Y194598D02*
Y189600D01*
X88001D01*
X87168Y190433D01*
Y193765D01*
X88001Y194598D01*
X90500D01*
X85502Y189600D02*
X83836D01*
X84669D01*
Y194598D01*
X85502Y193765D01*
X78004Y194598D02*
X79670Y193765D01*
X81336Y192099D01*
Y190433D01*
X80503Y189600D01*
X78837D01*
X78004Y190433D01*
Y191266D01*
X78837Y192099D01*
X81336D01*
X390500Y269598D02*
Y264600D01*
X388001D01*
X387168Y265433D01*
Y268765D01*
X388001Y269598D01*
X390500D01*
X385502Y264600D02*
X383836D01*
X384669D01*
Y269598D01*
X385502Y268765D01*
X378004Y269598D02*
X381336D01*
Y267099D01*
X379670Y267932D01*
X378837D01*
X378004Y267099D01*
Y265433D01*
X378837Y264600D01*
X380503D01*
X381336Y265433D01*
X315500Y269598D02*
Y264600D01*
X313001D01*
X312168Y265433D01*
Y268765D01*
X313001Y269598D01*
X315500D01*
X310502Y264600D02*
X308836D01*
X309669D01*
Y269598D01*
X310502Y268765D01*
X303837Y264600D02*
Y269598D01*
X306336Y267099D01*
X303004D01*
X240500Y269598D02*
Y264600D01*
X238001D01*
X237168Y265433D01*
Y268765D01*
X238001Y269598D01*
X240500D01*
X235502Y264600D02*
X233836D01*
X234669D01*
Y269598D01*
X235502Y268765D01*
X231336D02*
X230503Y269598D01*
X228837D01*
X228004Y268765D01*
Y267932D01*
X228837Y267099D01*
X229670D01*
X228837D01*
X228004Y266266D01*
Y265433D01*
X228837Y264600D01*
X230503D01*
X231336Y265433D01*
X165500Y269598D02*
Y264600D01*
X163001D01*
X162168Y265433D01*
Y268765D01*
X163001Y269598D01*
X165500D01*
X160502Y264600D02*
X158835D01*
X159669D01*
Y269598D01*
X160502Y268765D01*
X153004Y264600D02*
X156336D01*
X153004Y267932D01*
Y268765D01*
X153837Y269598D01*
X155503D01*
X156336Y268765D01*
X88900Y269598D02*
Y264600D01*
X86401D01*
X85568Y265433D01*
Y268765D01*
X86401Y269598D01*
X88900D01*
X83902Y264600D02*
X82235D01*
X83069D01*
Y269598D01*
X83902Y268765D01*
X79736Y264600D02*
X78070D01*
X78903D01*
Y269598D01*
X79736Y268765D01*
X390500Y344598D02*
Y339600D01*
X388001D01*
X387168Y340433D01*
Y343765D01*
X388001Y344598D01*
X390500D01*
X385502Y339600D02*
X383836D01*
X384669D01*
Y344598D01*
X385502Y343765D01*
X381336D02*
X380503Y344598D01*
X378837D01*
X378004Y343765D01*
Y340433D01*
X378837Y339600D01*
X380503D01*
X381336Y340433D01*
Y343765D01*
X311400Y344598D02*
Y339600D01*
X308901D01*
X308068Y340433D01*
Y343765D01*
X308901Y344598D01*
X311400D01*
X306402Y340433D02*
X305569Y339600D01*
X303902D01*
X303069Y340433D01*
Y343765D01*
X303902Y344598D01*
X305569D01*
X306402Y343765D01*
Y342932D01*
X305569Y342099D01*
X303069D01*
X236400Y344598D02*
Y339600D01*
X233901D01*
X233068Y340433D01*
Y343765D01*
X233901Y344598D01*
X236400D01*
X231402Y343765D02*
X230569Y344598D01*
X228902D01*
X228069Y343765D01*
Y342932D01*
X228902Y342099D01*
X228069Y341266D01*
Y340433D01*
X228902Y339600D01*
X230569D01*
X231402Y340433D01*
Y341266D01*
X230569Y342099D01*
X231402Y342932D01*
Y343765D01*
X230569Y342099D02*
X228902D01*
X161400Y344598D02*
Y339600D01*
X158901D01*
X158068Y340433D01*
Y343765D01*
X158901Y344598D01*
X161400D01*
X156402D02*
X153069D01*
Y343765D01*
X156402Y340433D01*
Y339600D01*
X86400Y344598D02*
Y339600D01*
X83901D01*
X83068Y340433D01*
Y343765D01*
X83901Y344598D01*
X86400D01*
X78069D02*
X79735Y343765D01*
X81402Y342099D01*
Y340433D01*
X80569Y339600D01*
X78902D01*
X78069Y340433D01*
Y341266D01*
X78902Y342099D01*
X81402D01*
X386400Y419598D02*
Y414600D01*
X383901D01*
X383068Y415433D01*
Y418765D01*
X383901Y419598D01*
X386400D01*
X378069D02*
X381402D01*
Y417099D01*
X379735Y417932D01*
X378902D01*
X378069Y417099D01*
Y415433D01*
X378902Y414600D01*
X380569D01*
X381402Y415433D01*
X311400Y419598D02*
Y414600D01*
X308901D01*
X308068Y415433D01*
Y418765D01*
X308901Y419598D01*
X311400D01*
X303902Y414600D02*
Y419598D01*
X306402Y417099D01*
X303069D01*
X236400Y419598D02*
Y414600D01*
X233901D01*
X233068Y415433D01*
Y418765D01*
X233901Y419598D01*
X236400D01*
X231402Y418765D02*
X230569Y419598D01*
X228902D01*
X228069Y418765D01*
Y417932D01*
X228902Y417099D01*
X229735D01*
X228902D01*
X228069Y416266D01*
Y415433D01*
X228902Y414600D01*
X230569D01*
X231402Y415433D01*
X161400Y419598D02*
Y414600D01*
X158901D01*
X158068Y415433D01*
Y418765D01*
X158901Y419598D01*
X161400D01*
X153069Y414600D02*
X156402D01*
X153069Y417932D01*
Y418765D01*
X153902Y419598D01*
X155569D01*
X156402Y418765D01*
X85334Y420098D02*
Y415100D01*
X82834D01*
X82001Y415933D01*
Y419265D01*
X82834Y420098D01*
X85334D01*
X80335Y415100D02*
X78669D01*
X79502D01*
Y420098D01*
X80335Y419265D01*
X283916Y619666D02*
X284749Y620499D01*
X286415D01*
X287248Y619666D01*
Y616334D01*
X286415Y615501D01*
X284749D01*
X283916Y616334D01*
X282250Y615501D02*
X280584D01*
X281417D01*
Y620499D01*
X282250Y619666D01*
X278084Y616334D02*
X277251Y615501D01*
X275585D01*
X274752Y616334D01*
Y619666D01*
X275585Y620499D01*
X277251D01*
X278084Y619666D01*
Y618833D01*
X277251Y618000D01*
X274752D01*
X56666Y559668D02*
X57499Y558835D01*
Y557168D01*
X56666Y556335D01*
X53334D01*
X52501Y557168D01*
Y558835D01*
X53334Y559668D01*
X52501Y564666D02*
Y561334D01*
X55833Y564666D01*
X56666D01*
X57499Y563833D01*
Y562167D01*
X56666Y561334D01*
Y566332D02*
X57499Y567165D01*
Y568831D01*
X56666Y569664D01*
X53334D01*
X52501Y568831D01*
Y567165D01*
X53334Y566332D01*
X56666D01*
X262916Y510666D02*
X263749Y511499D01*
X265415D01*
X266248Y510666D01*
Y507334D01*
X265415Y506501D01*
X263749D01*
X262916Y507334D01*
X261250Y506501D02*
X259583D01*
X260417D01*
Y511499D01*
X261250Y510666D01*
X253752Y511499D02*
X257084D01*
Y509000D01*
X255418Y509833D01*
X254585D01*
X253752Y509000D01*
Y507334D01*
X254585Y506501D01*
X256251D01*
X257084Y507334D01*
X274916Y500666D02*
X275749Y501499D01*
X277415D01*
X278248Y500666D01*
Y497334D01*
X277415Y496501D01*
X275749D01*
X274916Y497334D01*
X273250Y496501D02*
X271584D01*
X272416D01*
Y501499D01*
X273250Y500666D01*
X269084D02*
X268251Y501499D01*
X266585D01*
X265752Y500666D01*
Y499833D01*
X266585Y499000D01*
X267418D01*
X266585D01*
X265752Y498167D01*
Y497334D01*
X266585Y496501D01*
X268251D01*
X269084Y497334D01*
X274916Y486666D02*
X275749Y487499D01*
X277415D01*
X278248Y486666D01*
Y483334D01*
X277415Y482501D01*
X275749D01*
X274916Y483334D01*
X273250Y482501D02*
X271584D01*
X272416D01*
Y487499D01*
X273250Y486666D01*
X265752Y482501D02*
X269084D01*
X265752Y485833D01*
Y486666D01*
X266585Y487499D01*
X268251D01*
X269084Y486666D01*
X41083Y541666D02*
X41916Y542499D01*
X43582D01*
X44415Y541666D01*
Y538334D01*
X43582Y537501D01*
X41916D01*
X41083Y538334D01*
X39417Y537501D02*
X37750D01*
X38583D01*
Y542499D01*
X39417Y541666D01*
X35251Y537501D02*
X33585D01*
X34418D01*
Y542499D01*
X35251Y541666D01*
X27916Y552666D02*
X28749Y553499D01*
X30415D01*
X31248Y552666D01*
Y549334D01*
X30415Y548501D01*
X28749D01*
X27916Y549334D01*
X26250Y548501D02*
X24584D01*
X25416D01*
Y553499D01*
X26250Y552666D01*
X22084D02*
X21251Y553499D01*
X19585D01*
X18752Y552666D01*
Y549334D01*
X19585Y548501D01*
X21251D01*
X22084Y549334D01*
Y552666D01*
X35334Y555833D02*
X34501Y556666D01*
Y558332D01*
X35334Y559165D01*
X38666D01*
X39499Y558332D01*
Y556666D01*
X38666Y555833D01*
Y554167D02*
X39499Y553334D01*
Y551668D01*
X38666Y550835D01*
X35334D01*
X34501Y551668D01*
Y553334D01*
X35334Y554167D01*
X36167D01*
X37000Y553334D01*
Y550835D01*
X247833Y586520D02*
X248666Y587354D01*
X250332D01*
X251165Y586520D01*
Y583188D01*
X250332Y582355D01*
X248666D01*
X247833Y583188D01*
X246167Y587354D02*
X242835D01*
Y586520D01*
X246167Y583188D01*
Y582355D01*
X234833Y586520D02*
X235666Y587354D01*
X237332D01*
X238165Y586520D01*
Y583188D01*
X237332Y582355D01*
X235666D01*
X234833Y583188D01*
X229835Y587354D02*
X231501Y586520D01*
X233167Y584854D01*
Y583188D01*
X232334Y582355D01*
X230668D01*
X229835Y583188D01*
Y584021D01*
X230668Y584854D01*
X233167D01*
X183833Y522666D02*
X184666Y523499D01*
X186332D01*
X187165Y522666D01*
Y519334D01*
X186332Y518501D01*
X184666D01*
X183833Y519334D01*
X178835Y523499D02*
X182167D01*
Y521000D01*
X180501Y521833D01*
X179668D01*
X178835Y521000D01*
Y519334D01*
X179668Y518501D01*
X181334D01*
X182167Y519334D01*
X203833Y526666D02*
X204666Y527499D01*
X206332D01*
X207165Y526666D01*
Y523334D01*
X206332Y522501D01*
X204666D01*
X203833Y523334D01*
X199668Y522501D02*
Y527499D01*
X202167Y525000D01*
X198835D01*
X177833Y581666D02*
X178666Y582499D01*
X180332D01*
X181165Y581666D01*
Y578334D01*
X180332Y577501D01*
X178666D01*
X177833Y578334D01*
X172835Y577501D02*
X176167D01*
X172835Y580833D01*
Y581666D01*
X173668Y582499D01*
X175334D01*
X176167Y581666D01*
X166000D02*
X166833Y582499D01*
X168499D01*
X169332Y581666D01*
Y578334D01*
X168499Y577501D01*
X166833D01*
X166000Y578334D01*
X164334Y577501D02*
X162668D01*
X163501D01*
Y582499D01*
X164334Y581666D01*
D12*
X241252Y498630D02*
X250748D01*
X241252Y505370D02*
X250748D01*
X333370Y586252D02*
Y595748D01*
X326630Y586252D02*
Y595748D01*
X352346Y568039D02*
Y575961D01*
X345654Y568039D02*
Y575961D01*
X352445Y579948D02*
Y588052D01*
X345555Y579948D02*
Y588052D01*
X92347Y538039D02*
Y545961D01*
X85654Y538039D02*
Y545961D01*
X138347Y563039D02*
Y570961D01*
X131653Y563039D02*
Y570961D01*
X94653Y538039D02*
Y545961D01*
X101347Y538039D02*
Y545961D01*
X78792Y549291D02*
Y560709D01*
Y549291D02*
X79208D01*
Y560709D01*
X78792D02*
X79208D01*
X256653Y495039D02*
Y502961D01*
X263347Y495039D02*
Y502961D01*
X256653Y482039D02*
Y489961D01*
X263347Y482039D02*
Y489961D01*
X60039Y559654D02*
X67961D01*
X60039Y566347D02*
X67961D01*
X247948Y616555D02*
X256052D01*
X247948Y623445D02*
X256052D01*
X41571Y526948D02*
Y535052D01*
X48461Y526948D02*
Y535052D01*
X21571Y526948D02*
Y535052D01*
X28461Y526948D02*
Y535052D01*
X41571Y560948D02*
Y569052D01*
X48461Y560948D02*
Y569052D01*
X174465Y630268D02*
X181158D01*
X174504Y623752D02*
X181197D01*
X383642Y47146D02*
X385413D01*
X383642Y52854D02*
X385413D01*
X308642Y47146D02*
X310413D01*
X308642Y52854D02*
X310413D01*
X233642Y47146D02*
X235413D01*
X233642Y52854D02*
X235413D01*
X158642Y47146D02*
X160413D01*
X158642Y52854D02*
X160413D01*
X83642Y47146D02*
X85413D01*
X83642Y52854D02*
X85413D01*
X383642Y122146D02*
X385413D01*
X383642Y127854D02*
X385413D01*
X308642Y122146D02*
X310413D01*
X308642Y127854D02*
X310413D01*
X233642Y122146D02*
X235413D01*
X233642Y127854D02*
X235413D01*
X158642Y122146D02*
X160413D01*
X158642Y127854D02*
X160413D01*
X83642Y122146D02*
X85413D01*
X83642Y127854D02*
X85413D01*
X383642Y197146D02*
X385413D01*
X383642Y202854D02*
X385413D01*
X308642Y197146D02*
X310413D01*
X308642Y202854D02*
X310413D01*
X233642Y197146D02*
X235413D01*
X233642Y202854D02*
X235413D01*
X158642Y197146D02*
X160413D01*
X158642Y202854D02*
X160413D01*
X83642Y197146D02*
X85413D01*
X83642Y202854D02*
X85413D01*
X383642Y272146D02*
X385413D01*
X383642Y277854D02*
X385413D01*
X308642Y272146D02*
X310413D01*
X308642Y277854D02*
X310413D01*
X233642Y272146D02*
X235413D01*
X233642Y277854D02*
X235413D01*
X158642Y272146D02*
X160413D01*
X158642Y277854D02*
X160413D01*
X83642Y272146D02*
X85413D01*
X83642Y277854D02*
X85413D01*
X383642Y347146D02*
X385413D01*
X383642Y352854D02*
X385413D01*
X308642Y347146D02*
X310413D01*
X308642Y352854D02*
X310413D01*
X233642Y347146D02*
X235413D01*
X233642Y352854D02*
X235413D01*
X158642Y347146D02*
X160413D01*
X158642Y352854D02*
X160413D01*
X83642Y347146D02*
X85413D01*
X83642Y352854D02*
X85413D01*
X383642Y422146D02*
X385413D01*
X383642Y427854D02*
X385413D01*
X308642Y422146D02*
X310413D01*
X308642Y427854D02*
X310413D01*
X233642Y422146D02*
X235413D01*
X233642Y427854D02*
X235413D01*
X158642Y422146D02*
X160413D01*
X158642Y427854D02*
X160413D01*
X83642Y422146D02*
X85413D01*
X83642Y427854D02*
X85413D01*
X241252Y505630D02*
X250748D01*
X241252Y512370D02*
X250748D01*
X199039Y513654D02*
X206961D01*
X199039Y520346D02*
X206961D01*
M02*
