M48
;Layer_Color=9474304
;FILE_FORMAT=2:5
INCH,LZ
;TYPE=PLATED
T1F00S00C0.01181
T2F00S00C0.01968
T4F00S00C0.02756
T5F00S00C0.03000
T6F00S00C0.03937
T7F00S00C0.04331
T8F00S00C0.06000
T9F00S00C0.09843
;TYPE=NON_PLATED
T10F00S00C0.02559
T11F00S00C0.07200
T13F00S00C0.16000
%
T01
X004Y004
X009
X014
X019
X024
X029
X034
X039
X0415Y009
X0365
Y019
X0415
X0265
X0253Y0153
X0265Y009
X0256Y0078
X0215Y009
Y019
X0115
X0065
Y009
X0115
X004Y024
Y034
X014
X019
Y024
X014
X0252Y0228
X029Y024
X034
Y034
X029
X0251766Y0303
X0415Y029
Y039
X0365
X038Y0419
X0304Y0416
X0271352Y0419
X026862Y0417838
X0265Y0418
X0262
X0259Y042
X0244Y0413
X025Y0378
X0265Y039
X0215
X0254Y0485
X0255Y0489
X0254Y0498712
X0249Y0494
X027Y049
X028Y051
X026
X02
X0196Y049
X0194Y0483484
X015Y049
X013
X011
X009
X007
X005
X006Y051
X008
X01
X012
X014
X0171Y0416
X0094Y0419
X0115Y039
X0065
X004Y051
X002
X003Y053
Y0538
X004Y055
X002
X003Y057
X001
X002Y059
X004
X001Y053
X005
X0047Y0541
X0051Y055
X005Y057
X006Y059
X007Y061
X009
X011
X013
X015
X017
X0182Y0614
X019Y061
X0201Y0587766
X0194Y0575
X0195Y0565
X0194Y0547
X0183Y0534766
X0175Y0532
X0176Y0524
X0164Y0523
X0154Y0526
Y0516
X0144Y0526
X013Y053
X011
X009
X007
X0097Y0553
X0088Y0565
X0083Y0572
X011Y057
X013
X015
X0157Y0579
X016Y059
X0181389Y0573389
X012Y059
X01
X005Y061
X021Y0609
X0216
X0227Y0592234
X023Y0575
X0224655Y0574328
X022192Y057292
X0219Y0571
X0215
X0212Y0572
X0209Y0573
X0204075Y0538
X021Y0521
X0214Y0524
X025Y053
X0249801Y0549775
X0251766Y0552
X0246394Y0552394
X0243234Y0549234
X0245273Y0546643
X027Y053
Y057
X029
X031
X032Y055
X034
X0352Y0598
X0349Y0604
X033Y061
X0331Y0618
X03
Y0594
X025Y061
X0245Y0606
X0259Y062
X036Y059
X0366
X037Y0586
X0378Y059
X039
X0386Y0586
Y0574
X039Y057
X0378
X037Y0574
X0366Y057
X036Y055
X038
X04
X042
Y059
X04
T02
X0243Y0486
X0186Y048
X0188Y0579
X0095Y0588
X007Y0583
T04
X0140063Y0588354
X0147937
T05
X0158Y0567937
X0253Y0569063
T06
X0158Y0560063
X0253Y0576937
X0269205Y0605142
Y0622858
X0294795
Y0605142
T07
X0084Y0618
X0094
X0104
T08
X0375Y0085
Y016
X035Y015
X03Y016
X0275Y015
X0225Y016
Y0085
X0275Y0075
X03Y0085
X035Y0075
X02
X015Y0085
X0125Y0075
X0075Y0085
X005Y0075
Y015
X0075Y016
X0125Y015
X015Y016
X02Y015
Y0225
X015Y0235
X0125Y0225
X0075Y0235
X005Y0225
Y03
X0075Y031
X0125Y03
X015Y031
X02Y03
X0225Y031
X0275Y03
X03Y031
X035Y03
Y0225
X03Y0235
X0275Y0225
X0225Y0235
X0375
Y031
Y0385
Y046
X035Y045
X03Y046
X0275Y045
X0225Y046
Y0385
X0275Y0375
X03Y0385
X035Y0375
X02
X015Y0385
X0125Y0375
X0075Y0385
X005Y0375
Y045
X0075Y046
X0125Y045
X015Y046
X02Y045
X0044842Y0519472
X0035
X0025157
Y0576559
X0044842
T09
X002Y002
X041
X0411Y0485
X002
Y0613
X029Y055
T10
X0203622Y0607276
X0226378
T11
X0385Y0065
Y014
X0345
X031
X027
X0235
Y0065
X027
X031
X0345
X0195
X016
X012
X0085
Y014
X012
X016
X0195
X0045
Y0065
Y0215
Y029
X0085
X012
X016
X0195
Y0215
X016
X012
X0085
X0235
X027
X031
X0345
Y029
X031
X027
X0235
X0385
Y0215
Y0365
Y044
X0345
X031
X027
X0235
Y0365
X027
X031
X0345
X0195
X016
X012
X0085
Y044
X012
X016
X0195
X0045
Y0365
T13
X0365Y0065
Y014
X029
Y0065
X0215
Y014
X014
Y0065
X0065
Y014
Y0215
X014
Y029
X0065
X0215
Y0215
X029
Y029
X0365
Y0215
Y0365
Y044
X029
Y0365
X0215
Y044
X014
Y0365
X0065
Y044
M30
